<?xml version="1.0" encoding="utf-8"?>
<!-- Generator: Adobe Illustrator 16.0.0, SVG Export Plug-In . SVG Version: 6.00 Build 0)  -->
<!DOCTYPE svg PUBLIC "-//W3C//DTD SVG 1.1//EN" "http://www.w3.org/Graphics/SVG/1.1/DTD/svg11.dtd">
<svg version="1.1" id="Calque_1" xmlns="http://www.w3.org/2000/svg" xmlns:xlink="http://www.w3.org/1999/xlink" x="0px" y="0px"
	 width="199.976px" height="433.945px" viewBox="0 0 199.976 433.945" enable-background="new 0 0 199.976 433.945"
	 xml:space="preserve">
<g>
	<g>
		<path fill-rule="evenodd" clip-rule="evenodd" fill="none" d="M202.673,436.196c-67.325,0-134.649,0-201.975,0
			c0-145.314,0-290.63,0-435.945c67.324,0,134.649,0,201.975,0C202.673,145.566,202.673,290.88,202.673,436.196z M67.839,431.454
			c19.483-23.17,49.383-21.832,68.152,2.671c0-2.569,0.063-4.282-0.01-5.989c-1.523-36.386-8.424-72.013-14.62-107.783
			c-3.113-17.971-4.206-36.328-5.492-54.562c-0.484-6.855,0.459-14.074,6.938-18.766c-1.081-1.665-2.298-2.95-2.813-4.473
			c-0.812-2.393-2.297-5.604-1.356-7.242c0.892-1.553,4.675-2.397,6.937-2.026c5.877,0.963,11.772,2.326,17.375,4.33
			c9.515,3.404,18.81,7.423,28.208,11.188c1.987-7.446,4.586-10.983,10.149-10.403c7.299,0.762,13.015-0.571,17.296-6.683
			c0.265-0.378,0.625-0.688,0.734-0.808c-3.314-5.854-7.553-9.223-14.849-9.364c-6.398-0.123-12.439-2.893-12.343-11.498
			c-1.418,0.563-2.305,0.995-3.237,1.273c-14.632,4.367-29.223,8.888-43.953,12.898c-2.481,0.676-5.567-0.867-8.374-1.386
			c1.417-2.674,2.414-5.702,4.322-7.962c9.224-10.923,19.356-21.14,27.935-32.535c17.757-23.589,31.801-49.192,38.322-78.372
			c5.768-25.806,2.6-50.14-14.877-70.617C149.332,6.454,118.63-2.224,84.82,2.739c-50.2,7.369-77.867,47.428-69.334,97.406
			c4.938,28.927,17.697,54.375,35.23,77.431c9.757,12.831,20.983,24.538,31.295,36.959c1.614,1.944,1.891,5,2.786,7.543
			c-2.622,0.631-5.233,1.308-7.873,1.856c-0.606,0.126-1.321-0.132-1.958-0.31c-10.562-2.949-21.146-5.822-31.664-8.918
			c-4.537-1.336-8.936-3.139-13.563-4.789c-0.256,8.1-3.141,10.492-11.148,10.11c-1.87-0.09-4.21-0.271-5.566,0.682
			c-3.837,2.699-7.277,5.964-10.871,9.003c6.649,5.327,12.422,12.138,22.728,10.467c4.639-0.752,6.874,2.616,4.597,7.834
			c11.826-3.915,22.892-7.917,34.173-11.171c5.681-1.639,11.729-2.336,17.657-2.675c4.234-0.242,5.588,2.399,3.741,6.313
			c-1.248,2.645-3.01,5.047-4.621,7.684c5.179,3.25,6.243,8.519,6.203,13.605c-0.101,12.626,0.067,25.373-1.596,37.841
			c-2.924,21.916-7.573,43.6-10.677,65.497c-2.754,19.428-4.414,39.012-6.49,58.534C67.636,425.842,67.839,428.09,67.839,431.454z"
			/>
		<path fill-rule="evenodd" clip-rule="evenodd" d="M67.839,431.454c0-3.363-0.203-5.611,0.032-7.812
			c2.076-19.522,3.736-39.106,6.49-58.534c3.104-21.897,7.752-43.581,10.677-65.497c1.664-12.468,1.495-25.215,1.596-37.841
			c0.041-5.087-1.024-10.355-6.203-13.605c1.61-2.637,3.373-5.039,4.621-7.684c1.847-3.913,0.493-6.555-3.741-6.313
			c-5.927,0.339-11.976,1.036-17.657,2.675c-11.281,3.254-22.347,7.256-34.173,11.171c2.277-5.218,0.042-8.586-4.597-7.834
			c-10.306,1.671-16.079-5.14-22.728-10.467c3.593-3.039,7.033-6.304,10.871-9.003c1.356-0.953,3.696-0.771,5.566-0.682
			c8.007,0.382,10.892-2.011,11.148-10.11c4.627,1.65,9.026,3.453,13.563,4.789c10.518,3.096,21.102,5.969,31.664,8.918
			c0.638,0.178,1.352,0.436,1.958,0.31c2.639-0.549,5.251-1.226,7.873-1.856c-0.895-2.543-1.171-5.599-2.786-7.543
			c-10.313-12.422-21.538-24.129-31.295-36.959c-17.534-23.055-30.292-48.503-35.23-77.431C6.953,50.167,34.62,10.108,84.82,2.739
			c33.81-4.963,64.512,3.715,87.462,30.606c17.477,20.478,20.645,44.812,14.877,70.617c-6.521,29.18-20.565,54.783-38.322,78.372
			c-8.578,11.395-18.711,21.611-27.935,32.535c-1.908,2.26-2.905,5.288-4.322,7.962c2.807,0.519,5.893,2.062,8.374,1.386
			c14.73-4.011,29.321-8.531,43.953-12.898c0.933-0.278,1.819-0.711,3.237-1.273c-0.097,8.605,5.944,11.375,12.343,11.498
			c7.296,0.142,11.534,3.51,14.849,9.364c-0.109,0.119-0.47,0.43-0.734,0.808c-4.281,6.111-9.997,7.444-17.296,6.683
			c-5.563-0.58-8.162,2.957-10.149,10.403c-9.398-3.765-18.693-7.783-28.208-11.188c-5.603-2.004-11.498-3.367-17.375-4.33
			c-2.262-0.371-6.045,0.474-6.937,2.026c-0.94,1.638,0.545,4.85,1.356,7.242c0.516,1.522,1.732,2.808,2.813,4.473
			c-6.479,4.691-7.422,11.91-6.938,18.766c1.286,18.233,2.379,36.591,5.492,54.562c6.196,35.771,13.097,71.397,14.62,107.783
			c0.072,1.707,0.01,3.42,0.01,5.989C117.222,409.622,87.322,408.284,67.839,431.454z M121.698,139.901
			c-0.993,2.748-1.883,4.879-2.539,7.08c-3.794,12.739-7.791,25.429-11.095,38.295c-0.755,2.937,0.95,6.505,1.522,9.783
			c2.934-1.239,6.57-1.757,8.691-3.828c20.47-19.984,37.943-42.063,45.439-70.377c2.506-9.463,4.592-19.15,5.618-28.867
			c2.22-21.016-1.624-40.793-18.858-54.738c-22.748-18.406-48.686-24.14-76.821-14.021c-25.173,9.053-44.9,39.884-41.522,65.099
			c5.495,41.025,25.889,74.294,55.25,102.544c1.893,1.821,5.141,2.234,7.758,3.303c0.359-2.843,1.623-5.933,0.925-8.487
			c-3.329-12.174-7.153-24.214-10.888-36.274c-1.005-3.247-2.316-6.399-3.506-9.648c7.027-1.467,9.335-4.105,9.991-10.957
			c0.189-1.977-0.309-4.36,0.626-5.858c2.609-4.175,5.806-7.983,8.831-12.016c1.764,2.272,3.289,4.919,5.446,6.868
			c3.899,3.523,6.05,7.385,6.045,12.885C112.608,135.765,115.121,139.67,121.698,139.901z"/>
		<path fill-rule="evenodd" clip-rule="evenodd" fill="none" d="M121.698,139.901c-6.577-0.23-9.09-4.136-9.086-9.215
			c0.005-5.5-2.146-9.362-6.045-12.885c-2.157-1.949-3.683-4.596-5.446-6.868c-3.025,4.033-6.221,7.841-8.831,12.016
			c-0.936,1.498-0.437,3.881-0.626,5.858c-0.656,6.852-2.964,9.49-9.991,10.957c1.19,3.25,2.501,6.401,3.506,9.648
			c3.735,12.061,7.559,24.101,10.888,36.274c0.698,2.554-0.565,5.645-0.925,8.487c-2.618-1.068-5.866-1.481-7.758-3.303
			c-29.362-28.25-49.756-61.519-55.25-102.544c-3.377-25.215,16.35-56.046,41.522-65.099c28.136-10.119,54.073-4.385,76.821,14.021
			c17.234,13.944,21.078,33.722,18.858,54.738c-1.026,9.717-3.112,19.404-5.618,28.867c-7.496,28.314-24.97,50.393-45.439,70.377
			c-2.121,2.071-5.758,2.589-8.691,3.828c-0.572-3.278-2.277-6.846-1.522-9.783c3.304-12.867,7.301-25.556,11.095-38.295
			C119.815,144.78,120.705,142.649,121.698,139.901z"/>
	</g>
</g>
</svg>
